<svg width="17" height="18" viewBox="0 0 17 18" fill="none" xmlns="http://www.w3.org/2000/svg">
<path d="M6.25 11.25C6.25 9.1287 6.25 8.06805 6.90901 7.40901C7.56805 6.75 8.6287 6.75 10.75 6.75H11.5C13.6213 6.75 14.6819 6.75 15.341 7.40901C16 8.06805 16 9.1287 16 11.25V12C16 14.1213 16 15.1819 15.341 15.841C14.6819 16.5 13.6213 16.5 11.5 16.5H10.75C8.6287 16.5 7.56805 16.5 6.90901 15.841C6.25 15.1819 6.25 14.1213 6.25 12V11.25Z" stroke="#121212" stroke-width="1.5" stroke-linecap="round" stroke-linejoin="round"/>
<path d="M12.2499 6.75C12.2481 4.53218 12.2146 3.38341 11.569 2.59682C11.4443 2.44492 11.3051 2.30563 11.1532 2.18097C10.3234 1.5 9.09062 1.5 6.625 1.5C4.15939 1.5 2.92658 1.5 2.09682 2.18097C1.94492 2.30563 1.80563 2.44492 1.68097 2.59682C1 3.42658 1 4.65939 1 7.125C1 9.59062 1 10.8234 1.68097 11.6532C1.80563 11.8051 1.94492 11.9443 2.09682 12.069C2.88341 12.7146 4.03218 12.7481 6.25 12.7499" stroke="#121212" stroke-width="1.5" stroke-linecap="round" stroke-linejoin="round"/>
</svg>
