<svg width="35.000000" height="37.000000" viewBox="0 0 35 37" fill="none" xmlns="http://www.w3.org/2000/svg" xmlns:xlink="http://www.w3.org/1999/xlink">
	<desc>
			Created with Pixso.
	</desc>
	<defs/>
	<rect id="gold-coin" rx="0.000000" width="34.217285" height="36.217285" transform="translate(0.391356 0.391356)" fill="#FFFFFF" fill-opacity="0"/>
	<path id="Vector" d="M20.74 16.94C20.41 17.05 20.2 17.16 20.09 17.38C20.2 17.49 21.38 18.16 21.28 18.38C21.17 18.49 19.98 17.83 19.87 17.83C19.76 18.05 19.76 18.38 19.76 18.72C20.41 21.49 20.09 21.72 19.12 18.94C19.01 18.61 18.9 18.38 18.68 18.27C18.68 18.27 18.68 18.27 18.68 18.38C17.71 19.94 17.39 19.94 18.36 18.16C18.36 18.16 18.36 18.16 18.36 18.05C18.14 17.94 17.82 17.94 17.5 17.94C14.79 18.61 14.58 18.27 17.28 17.27C17.6 17.16 17.82 17.05 17.93 16.83C17.93 16.83 17.93 16.83 17.82 16.83C16.2 15.72 16.41 15.61 18.04 16.49C18.04 16.49 18.04 16.49 18.14 16.49C18.25 16.27 18.25 15.94 18.25 15.61C17.6 12.72 17.93 12.72 18.9 15.38C19.01 15.72 19.12 15.94 19.33 16.05C19.44 15.94 20.09 14.72 20.3 14.83C20.41 14.94 19.76 16.16 19.76 16.27C19.98 16.38 20.3 16.38 20.63 16.38C21.82 16.05 22.68 15.94 22.79 16.05C22.68 16.16 21.92 16.49 20.74 16.94Z" fill="#FFFFFF" fill-opacity="1.000000" fill-rule="nonzero"/>
	<path id="Vector" d="M32.08 12.27L29.27 25.94C29.05 26.94 28.3 27.83 27.43 28.16C13.82 33.61 14.36 33.83 13.07 33.61C11.77 33.49 12.2 33.27 1.62 24.72C0.86 24.05 0.54 23.16 0.75 22.05L3.67 8.49C3.78 7.49 4.53 6.61 5.5 6.27C6.8 5.72 17.06 1.49 18.47 0.94C19.44 0.49 20.52 0.72 21.17 1.38C23.54 3.38 29.16 7.94 31.32 9.72C31.97 10.27 32.29 11.27 32.08 12.27Z" fill="#F9CF6B" fill-opacity="1.000000" fill-rule="nonzero"/>
	<path id="Vector" d="M28.08 7.16C25.81 8.94 22.36 10.05 18.58 10.05C13.61 10.05 9.39 8.16 7.34 5.49L18.36 0.94C20.52 0.16 21.06 1.49 28.08 7.16Z" fill="#FFDD95" fill-opacity="1.000000" fill-rule="nonzero"/>
	<path id="Vector" d="M5.29 21.38L7.56 10.61C7.66 10.27 7.88 9.94 8.2 9.83L18.58 5.49C18.9 5.38 19.33 5.38 19.66 5.72L27.22 11.94C27.54 12.16 27.65 12.61 27.65 13.05L25.38 23.83C25.27 24.16 25.06 24.49 24.73 24.61L14.25 28.94C13.93 29.05 13.5 29.05 13.17 28.72L5.61 22.49C5.29 22.27 5.18 21.83 5.29 21.38Z" fill="#F3A250" fill-opacity="1.000000" fill-rule="nonzero"/>
	<path id="Vector" d="M27.54 13.61C27.43 13.27 27.54 13.49 20.3 7.49C20.2 7.38 19.98 7.27 19.76 7.27L19.12 5.49C19.33 5.49 19.44 5.61 19.55 5.72L27.11 11.94C27.97 12.61 27.54 13.38 27.54 13.61Z" fill="#EF7B56" fill-opacity="1.000000" fill-rule="nonzero"/>
	<path id="Vector" d="M19.76 7.27C19.55 7.27 19.44 7.27 19.22 7.38L9.61 11.38C9.39 11.49 9.29 11.61 9.18 11.72L7.66 10.27C7.99 9.83 7.88 10.05 18.58 5.72C18.79 5.61 19.01 5.61 19.22 5.61L19.76 7.27Z" fill="#E86A49" fill-opacity="1.000000" fill-rule="nonzero"/>
	<path id="Vector" d="M9.29 11.61C9.18 11.72 9.07 11.83 9.07 12.05C6.91 22.61 6.91 22.05 7.02 22.38L5.29 21.83C5.18 21.38 5.29 21.72 7.56 10.49C7.56 10.27 7.66 10.16 7.77 10.05L9.29 11.61Z" fill="#EF7B56" fill-opacity="1.000000" fill-rule="nonzero"/>
	<path id="Vector" d="M14.47 28.83C14.36 28.83 13.82 29.16 13.28 28.72C5.4 22.05 5.5 22.49 5.29 21.83L7.02 22.38C7.02 22.61 7.23 22.83 7.34 22.94C11.99 26.83 14.36 28.83 14.47 28.83Z" fill="#E86A49" fill-opacity="1.000000" fill-rule="nonzero"/>
	<path id="Vector" d="M34.24 14.27C34.24 14.83 31.43 28.49 31.32 28.61C31.21 29.16 31.11 29.49 30.67 29.94C30.35 30.27 29.59 30.38 28.73 31.16C28.3 31.38 27.76 31.61 27.22 31.83C26.57 32.16 25.81 32.38 24.84 32.83C24.73 32.83 24.62 32.94 24.62 32.94C22.68 33.72 19.98 34.72 16.63 36.16L16.52 36.16C15.98 36.27 15.55 36.27 15.12 36.27C14.79 36.16 14.36 36.05 14.15 35.83C14.04 35.72 10.58 32.94 3.88 27.27C3.45 27.05 3.45 27.05 1.29 24.38C1.51 24.61 1.83 24.83 11.77 33.05C12.2 33.38 12.63 33.61 13.17 33.61C13.28 33.61 13.28 33.61 13.39 33.61C13.39 33.61 13.39 33.61 13.5 33.61C13.82 33.61 14.15 33.61 14.58 33.38C16.85 32.38 18.79 31.61 20.41 30.94C24.73 29.16 26.46 28.49 27.22 28.16C27.65 27.94 27.76 27.94 27.87 27.83L27.97 27.72C28.41 27.38 28.73 26.94 28.95 26.49C29.27 25.83 29.05 26.38 31.97 12.16C32.08 11.49 31.97 10.94 31.75 10.38C31.65 10.16 31.54 10.05 31.43 9.94C33.59 12.61 33.59 12.49 33.81 12.94C34.13 13.38 34.24 13.83 34.24 14.27Z" fill="#F3A250" fill-opacity="1.000000" fill-rule="nonzero"/>
	<path id="Vector" d="M30.78 29.83C30.78 29.83 30.67 29.94 30.35 30.27C30.24 30.38 29.7 30.61 28.84 31.05C28.41 31.27 27.87 31.49 27.33 31.72C26.57 32.05 25.81 32.38 24.95 32.72C24.84 32.72 24.84 32.83 24.73 32.83C22.79 33.61 20.09 34.61 16.74 36.05C16.74 36.05 16.63 36.05 16.63 36.16C15.98 36.27 15.55 36.27 15.12 36.27L13.17 33.72C13.17 33.72 13.28 33.72 13.39 33.72C13.39 33.72 13.39 33.72 13.5 33.72C13.82 33.72 14.15 33.72 14.58 33.49C16.85 32.49 18.79 31.72 20.41 31.05C24.19 29.49 26.14 28.61 27.22 28.27C27.54 28.16 27.76 28.05 27.87 27.94C28.19 27.72 28.51 27.49 28.73 27.05L30.78 29.83Z" fill="#EF7B56" fill-opacity="1.000000" fill-rule="nonzero"/>
	<path id="Rectangle 4780" d="M14.32 12.17L20.98 12.59C21.55 12.63 21.83 12.64 22.02 12.79C22.12 12.87 22.21 12.97 22.26 13.1C22.36 13.31 22.31 13.59 22.22 14.15L21.07 21.17C20.99 21.62 20.95 21.85 20.83 22.01C20.75 22.1 20.66 22.17 20.56 22.22C20.38 22.31 20.15 22.3 19.68 22.27L13.02 21.85C12.46 21.81 12.18 21.79 11.99 21.65C11.88 21.57 11.8 21.46 11.74 21.34C11.64 21.12 11.69 20.85 11.78 20.29L12.94 13.27C13.01 12.81 13.05 12.58 13.18 12.43C13.25 12.34 13.34 12.26 13.44 12.21C13.63 12.13 13.86 12.14 14.32 12.17ZM20.64 14.14L14.44 13.75L13.37 20.3L19.56 20.69L20.64 14.14Z" fill="#FFFFFF" fill-opacity="1.000000" fill-rule="evenodd"/>
</svg>
