<svg width="81" height="81" viewBox="0 0 81 81" fill="none" xmlns="http://www.w3.org/2000/svg">
<rect width="81" height="81" rx="12" fill="#F37529"/>
<path d="M42.6954 41.4224C49.0281 41.4224 54.1617 36.1808 54.1617 29.715C54.1617 23.2492 49.0281 18.0076 42.6954 18.0076C36.3628 18.0076 31.2291 23.2492 31.2291 29.715C31.2291 36.1808 36.3628 41.4224 42.6954 41.4224Z" stroke="white" stroke-width="2" stroke-linecap="round" stroke-linejoin="round"/>
<path d="M40.8581 64.6242H22.0018C21.1551 64.6242 20.4677 63.9233 20.4677 63.0578C20.4677 51.1079 29.9556 41.4204 41.6595 41.4204C41.6595 41.4204 51.5945 41.378 55.6254 44.9919" stroke="white" stroke-width="2" stroke-linecap="round" stroke-linejoin="round"/>
<path d="M54.3088 66.0441C54.3088 66.4583 54.6446 66.7941 55.0588 66.7941C55.4731 66.7941 55.8088 66.4583 55.8088 66.0441L54.3088 66.0441ZM55.5892 49.6314C55.2963 49.3386 54.8214 49.3386 54.5285 49.6314L49.7555 54.4044C49.4626 54.6973 49.4626 55.1722 49.7555 55.4651C50.0484 55.758 50.5233 55.758 50.8162 55.4651L55.0588 51.2224L59.3015 55.4651C59.5944 55.758 60.0692 55.758 60.3621 55.4651C60.655 55.1722 60.655 54.6973 60.3621 54.4044L55.5892 49.6314ZM55.8088 66.0441L55.8088 50.1618L54.3088 50.1618L54.3088 66.0441L55.8088 66.0441Z" fill="white"/>
</svg>
