<svg width="81" height="81" viewBox="0 0 81 81" fill="none" xmlns="http://www.w3.org/2000/svg">
<rect width="81" height="81" rx="12" fill="#F37529"/>
<path d="M39.4197 40.477C45.0121 40.477 49.5457 35.848 49.5457 30.138C49.5457 24.4279 45.0121 19.799 39.4197 19.799C33.8272 19.799 29.2936 24.4279 29.2936 30.138C29.2936 35.848 33.8272 40.477 39.4197 40.477Z" stroke="white" stroke-width="2" stroke-linecap="round" stroke-linejoin="round"/>
<path d="M37.7971 60.9669H21.1448C20.397 60.9669 19.7899 60.348 19.7899 59.5836C19.7899 49.0304 28.1689 40.4752 38.5048 40.4752C38.5048 40.4752 47.2785 40.4378 50.8383 43.6293" stroke="white" stroke-width="2" stroke-linecap="round" stroke-linejoin="round"/>
<path d="M48.5226 61.1254C46.0934 61.5824 41.9759 59.998 41.8301 55.5267C41.7482 53.0116 43.2532 51.7623 44.5859 51.1494C45.4223 50.7646 46.3347 50.5826 47.253 50.5826H61.21L54.3956 44.3632" stroke="white" stroke-width="2" stroke-linecap="round" stroke-linejoin="round"/>
<path d="M61.2099 50.5835L54.6428 57.1155" stroke="white" stroke-width="2" stroke-linecap="round" stroke-linejoin="round"/>
</svg>
