<svg width="81" height="81" viewBox="0 0 81 81" fill="none" xmlns="http://www.w3.org/2000/svg">
<rect width="81" height="81" rx="12" fill="#F37529"/>
<path d="M47.0625 42.375C53.7935 42.375 59.25 40.6961 59.25 38.625C59.25 36.5539 53.7935 34.875 47.0625 34.875C40.3315 34.875 34.875 36.5539 34.875 38.625C34.875 40.6961 40.3315 42.375 47.0625 42.375Z" stroke="white" stroke-width="2"/>
<path d="M59.25 47.0625C59.25 49.1336 53.7936 50.8125 47.0625 50.8125C40.3314 50.8125 34.875 49.1336 34.875 47.0625" stroke="white" stroke-width="2"/>
<path d="M59.25 38.625V55.125C59.25 57.4031 53.7936 59.25 47.0625 59.25C40.3314 59.25 34.875 57.4031 34.875 55.125V38.625" stroke="white" stroke-width="2"/>
<path d="M33.9375 29.25C40.6685 29.25 46.125 27.5711 46.125 25.5C46.125 23.4289 40.6685 21.75 33.9375 21.75C27.2065 21.75 21.75 23.4289 21.75 25.5C21.75 27.5711 27.2065 29.25 33.9375 29.25Z" stroke="white" stroke-width="2"/>
<path d="M29.25 38.625C25.7029 38.1934 22.4436 37.0772 21.75 34.875M29.25 48C25.7029 47.5684 22.4436 46.4522 21.75 44.25" stroke="white" stroke-width="2" stroke-linecap="round"/>
<path d="M29.25 57.375C25.7029 56.9434 22.4436 55.8272 21.75 53.625V25.5" stroke="white" stroke-width="2" stroke-linecap="round"/>
<path d="M46.125 29.25V25.5" stroke="white" stroke-width="2" stroke-linecap="round"/>
</svg>
