<svg width="81" height="81" viewBox="0 0 81 81" fill="none" xmlns="http://www.w3.org/2000/svg">
<rect width="81" height="81" rx="12" fill="#F37529"/>
<path d="M40.2278 39.1648C46.5604 39.1648 51.6941 33.9232 51.6941 27.4574C51.6941 20.9916 46.5604 15.75 40.2278 15.75C33.8951 15.75 28.7615 20.9916 28.7615 27.4574C28.7615 33.9232 33.8951 39.1648 40.2278 39.1648Z" stroke="white" stroke-width="2" stroke-linecap="round" stroke-linejoin="round"/>
<path d="M38.3904 62.3666H19.5342C18.6874 62.3666 18 61.6657 18 60.8002C18 48.8503 27.488 39.1628 39.1918 39.1628C39.1918 39.1628 49.1268 39.1204 53.1578 42.7344" stroke="white" stroke-width="2" stroke-linecap="round" stroke-linejoin="round"/>
<path d="M51.8412 47.9042C51.8412 47.49 52.177 47.1542 52.5912 47.1542C53.0054 47.1542 53.3412 47.49 53.3412 47.9042L51.8412 47.9042ZM53.1215 64.3169C52.8286 64.6098 52.3538 64.6098 52.0609 64.3169L47.2879 59.5439C46.995 59.2511 46.995 58.7762 47.2879 58.4833C47.5808 58.1904 48.0557 58.1904 48.3485 58.4833L52.5912 62.7259L56.8338 58.4833C57.1267 58.1904 57.6016 58.1904 57.8945 58.4833C58.1874 58.7762 58.1874 59.2511 57.8945 59.5439L53.1215 64.3169ZM53.3412 47.9042L53.3412 63.7866L51.8412 63.7866L51.8412 47.9042L53.3412 47.9042Z" fill="white"/>
</svg>
