<svg width="304.000000" height="25.415283" viewBox="0 0 304 25.4153" fill="none" xmlns="http://www.w3.org/2000/svg" xmlns:xlink="http://www.w3.org/1999/xlink">
	<desc>
			Created with Pixso.
	</desc>
	<defs/>
	<path id="Vector" d="M43.47 25.31L40.09 25.31L40.09 10.12L35.02 10.12L35.02 6.75L40.09 6.75L40.09 0L43.47 0L43.47 6.75L55.29 6.75L55.29 10.12L43.47 10.12L43.47 25.31Z" fill="#F37529" fill-opacity="1.000000" fill-rule="nonzero"/>
	<path id="Vector" d="M34.16 25.31L33.32 25.31C32.5 25.31 31.73 25.16 31.02 24.85C30.3 24.54 29.67 24.13 29.14 23.6C28.6 23.06 28.17 22.43 27.86 21.72C27.56 20.99 27.4 20.23 27.4 19.41L27.4 0L30.78 0L30.78 19.41C30.78 19.76 30.85 20.09 30.98 20.4C31.12 20.7 31.3 20.96 31.53 21.19C31.76 21.42 32.03 21.6 32.33 21.74C32.64 21.87 32.97 21.94 33.32 21.94L34.16 21.94L34.16 25.31Z" fill="#F37529" fill-opacity="1.000000" fill-rule="nonzero"/>
	<path id="Vector" d="M22.8 25.31L5.91 25.31C5.09 25.31 4.32 25.16 3.61 24.85C2.89 24.54 2.27 24.13 1.73 23.6C1.19 23.06 0.76 22.43 0.46 21.72C0.15 20.99 0 20.23 0 19.41C0 18.59 0.15 17.82 0.46 17.11C0.76 16.39 1.19 15.76 1.73 15.23C2.27 14.69 2.89 14.27 3.61 13.96C4.32 13.65 5.09 13.5 5.91 13.5L17.72 13.5L17.72 16.87L5.91 16.87C5.56 16.87 5.23 16.95 4.93 17.09C4.62 17.22 4.35 17.4 4.12 17.63C3.89 17.86 3.7 18.13 3.57 18.44C3.44 18.75 3.38 19.07 3.38 19.41C3.38 19.76 3.44 20.09 3.57 20.4C3.7 20.7 3.89 20.96 4.12 21.19C4.35 21.42 4.62 21.6 4.93 21.74C5.23 21.87 5.56 21.94 5.91 21.94L19.42 21.94L19.42 12.66C19.42 12.31 19.35 11.99 19.21 11.68C19.08 11.37 18.89 11.11 18.66 10.87C18.43 10.64 18.16 10.46 17.85 10.33C17.55 10.19 17.22 10.12 16.88 10.12L3.38 10.12L3.38 6.75L16.88 6.75C17.71 6.75 18.48 6.91 19.19 7.22C19.91 7.52 20.53 7.95 21.07 8.49C21.61 9.01 22.03 9.63 22.34 10.35C22.65 11.06 22.8 11.83 22.8 12.66L22.8 25.31Z" fill="#F37529" fill-opacity="1.000000" fill-rule="nonzero"/>
	<path id="Vector" d="M56.42 23.45C56.42 22.91 56.43 22.37 56.42 21.83C56.41 21.55 56.53 21.44 56.81 21.44C57.87 21.45 58.94 21.45 60 21.44C60.28 21.44 60.39 21.56 60.39 21.84C60.38 22.9 60.38 23.96 60.39 25.03C60.39 25.31 60.28 25.41 60 25.41C58.94 25.4 57.87 25.4 56.81 25.41C56.53 25.41 56.41 25.3 56.42 25.02C56.43 24.5 56.42 23.97 56.42 23.45Z" fill="#F37529" fill-opacity="1.000000" fill-rule="nonzero"/>
	<path id="Vector" d="M69.03 4.07L65.56 4.07L65.56 7.43L69.03 7.43L69.03 4.07Z" fill="#2F3192" fill-opacity="1.000000" fill-rule="nonzero"/>
	<path id="Vector" d="M66.8 9.58L66.8 11.74L69.03 11.74L69.03 9.58L66.8 9.58Z" fill="#2F3192" fill-opacity="1.000000" fill-rule="nonzero"/>
	<path id="Vector" d="M69.03 9.58L71.26 9.58L71.26 7.43L69.03 7.43L69.03 9.58Z" fill="#2F3192" fill-opacity="1.000000" fill-rule="nonzero"/>
	<path id="Vector" d="M72.79 11.75L69.03 11.75L69.03 15.04L72.79 15.04L72.79 11.75Z" fill="#2F3192" fill-opacity="1.000000" fill-rule="nonzero"/>
	<path id="Vector" d="M75.64 2.24L75.64 6.42L74.55 6.42L74.55 8.13L76.32 8.13L76.32 9.83L74.55 9.83L74.55 8.13L72.79 8.13L72.79 11.75L74.48 11.75L74.48 15.04L72.79 15.04L72.79 23.66C72.79 24.4 73.38 24.99 74.12 24.99L86.25 24.99C91.82 24.99 96.36 20.61 96.36 15.23L96.36 12C96.36 6.62 91.82 2.23 86.25 2.23L75.64 2.24ZM72.79 2.23L72.79 2.24L74.55 2.24L72.79 2.23ZM77.17 3.85L78.91 3.85L78.91 5.53L77.17 5.53L77.17 3.85ZM91.93 15.19C91.93 18.37 89.24 20.96 85.95 20.96L76.72 20.96L76.72 15.9L75.43 15.9L75.43 14.27L76.72 14.27L76.72 6.27L85.95 6.27C89.24 6.27 91.93 8.86 91.93 12.04L91.93 15.19Z" fill="#2F3192" fill-opacity="1.000000" fill-rule="nonzero"/>
	<path id="Vector" d="M72.79 2.24L70.15 2.24L70.15 6.42L74.55 6.42L74.55 2.24L72.79 2.24Z" fill="#2F3192" fill-opacity="1.000000" fill-rule="nonzero"/>
	<path id="Vector" d="M121.18 10.93L121.18 7.75C121.18 4.67 118.68 2.18 115.6 2.18L99.34 2.18C98.6 2.18 98.01 2.78 98.01 3.51L98.01 17.83L98.03 17.83L98.03 24.99L102.29 24.99L102.29 17.83L108.54 17.83L115.63 24.99L122.42 25.03L115.07 17.75C118.5 17.35 121.18 14.46 121.18 10.93L121.18 10.93ZM102.31 13.52L102.31 6.49L115.6 6.49C116.3 6.49 116.87 7.05 116.87 7.75L116.87 10.93C116.87 12.36 115.71 13.52 114.28 13.52L102.31 13.52Z" fill="#2F3192" fill-opacity="1.000000" fill-rule="nonzero"/>
	<path id="Vector" d="M150 2.25L143.71 2.28L143.56 2.45L136.48 10.23L129.25 2.28L122.99 2.27L133.35 13.67L123.02 25.03L129.28 25.03L129.47 24.83L136.48 17.11L143.65 24.99L143.68 25.03L149.94 25.03L139.61 13.67L150 2.25Z" fill="#2F3192" fill-opacity="1.000000" fill-rule="nonzero"/>
</svg>
