<svg width="160" height="22" viewBox="0 0 160 22" fill="none" xmlns="http://www.w3.org/2000/svg">
<mask id="mask0_4_13444" style="mask-type:luminance" maskUnits="userSpaceOnUse" x="0" y="1" width="23" height="21">
<path d="M0.60376 1.7973H22.1804V21.854H0.60376V1.7973Z" fill="white"/>
</mask>
<g mask="url(#mask0_4_13444)">
<path d="M0.60376 21.854V1.7973H22.1482V21.854H0.60376Z" fill="#F37529"/>
</g>
<mask id="mask1_4_13444" style="mask-type:luminance" maskUnits="userSpaceOnUse" x="0" y="1" width="20" height="21">
<path d="M0.606262 1.79236H19.6183V21.7549H0.606262V1.79236Z" fill="white"/>
</mask>
<g mask="url(#mask1_4_13444)">
<path d="M5.34446 -3.00763C5.17365 -3.00515 5.01026 -2.93831 4.88896 -2.81701L0.94546 1.09431C0.690481 1.35176 0.688005 1.76518 0.940509 2.02015L10.2584 11.4172L0.866243 20.7376C0.606314 20.9925 0.603838 21.406 0.861292 21.6634L4.77261 25.6069C5.03007 25.8644 5.44348 25.8668 5.69846 25.6119L19.5044 11.9173C19.7594 11.6623 19.7619 11.2489 19.5069 10.989L5.81728 -2.81206C5.69103 -2.94079 5.52022 -3.0101 5.34446 -3.00763Z" fill="#2F3192"/>
</g>
<path d="M67.7869 21.9158H64.8608V8.76086H60.4767V5.84965H64.8608V0H67.7869V5.84965H78.0232V8.76086H67.7869V21.9158Z" fill="#F37529"/>
<path d="M59.7341 21.9158H59.0063C58.2933 21.9158 57.6274 21.7821 57.0085 21.5172C56.3897 21.2499 55.8475 20.8884 55.3821 20.4329C54.9142 19.9675 54.5479 19.4229 54.2805 18.8065C54.0156 18.1777 53.882 17.5118 53.882 16.8088V0H56.808V16.8088C56.808 17.1133 56.865 17.398 56.9788 17.6653C57.0952 17.9203 57.2511 18.1505 57.4517 18.3486C57.6497 18.5491 57.8849 18.705 58.1498 18.8189C58.4171 18.9352 58.7018 18.9922 59.0063 18.9922H59.7341V21.9158Z" fill="#F37529"/>
<path d="M49.8989 21.9157H35.2809C34.568 21.9157 33.9021 21.782 33.2832 21.5171C32.6643 21.2498 32.1222 20.8883 31.6543 20.4328C31.1889 19.9674 30.8225 19.4228 30.5552 18.8064C30.2903 18.1776 30.1566 17.5117 30.1566 16.8087C30.1566 16.0957 30.2903 15.4298 30.5552 14.8109C30.8225 14.192 31.1889 13.6499 31.6543 13.1845C32.1222 12.7191 32.6643 12.3527 33.2832 12.0854C33.9021 11.8205 34.568 11.6868 35.2809 11.6868H45.5024V14.6104H35.2809C34.9765 14.6104 34.6918 14.6723 34.4244 14.7961C34.1571 14.91 33.9244 15.0684 33.7238 15.2664C33.5258 15.4669 33.3674 15.6996 33.2535 15.967C33.1396 16.2319 33.0827 16.5141 33.0827 16.8087C33.0827 17.1132 33.1396 17.3978 33.2535 17.6652C33.3674 17.9202 33.5258 18.1504 33.7238 18.3484C33.9244 18.549 34.1571 18.7049 34.4244 18.8188C34.6918 18.9351 34.9765 18.9921 35.2809 18.9921H46.9728V10.959C46.9728 10.6644 46.9109 10.3822 46.7872 10.1173C46.6733 9.84999 46.5149 9.61729 46.3168 9.41677C46.1163 9.21873 45.8836 9.0603 45.6162 8.94642C45.3489 8.82265 45.0691 8.76076 44.7746 8.76076H33.0827V5.84955H44.7746C45.4875 5.84955 46.1534 5.98323 46.7723 6.25058C47.3912 6.51546 47.9333 6.88184 48.4012 7.34971C48.8666 7.80521 49.233 8.3424 49.5003 8.96128C49.7652 9.58016 49.8989 10.2461 49.8989 10.959V21.9157Z" fill="#F37529"/>
<path d="M79.0009 20.3043C79.0009 19.8364 79.0059 19.3686 78.9985 18.9032C78.9935 18.6606 79.0925 18.564 79.3376 18.564C80.2585 18.5715 81.1794 18.569 82.1003 18.564C82.3429 18.564 82.4345 18.6655 82.4345 18.9081C82.4246 19.829 82.4246 20.7474 82.4345 21.6683C82.4345 21.9159 82.3404 22.0025 82.0978 21.9976C81.1769 21.9926 80.256 21.9926 79.3351 22C79.095 22.0025 78.9935 21.9085 78.9985 21.6634C79.0059 21.2104 79.0009 20.7573 79.0009 20.3043Z" fill="#F37529"/>
<path d="M89.9157 3.53015H86.908V6.43394H89.9157V3.53015Z" fill="white"/>
<path d="M87.9846 8.30029V10.1644H89.9155V8.30029H87.9846Z" fill="white"/>
<path d="M89.9155 8.30062H91.8464V6.43408H89.9155V8.30062Z" fill="white"/>
<path d="M93.1659 10.1794H89.9155V13.0213H93.1659V10.1794Z" fill="white"/>
<path d="M95.6341 1.94554V5.56475H94.6959V7.04016H96.2233V8.51557H94.6959V7.04016H93.166V10.1766H94.6315V13.021H93.166V20.4872C93.166 21.1234 93.6834 21.6383 94.3196 21.6383H104.818C109.646 21.6383 113.572 17.8483 113.572 13.1869V10.392C113.572 5.73061 109.646 1.93811 104.818 1.93811M93.166 1.93811V1.94554H94.6959M96.9635 3.33678H98.4711V4.78743H96.9635V3.33678ZM109.735 13.1497C109.735 15.9025 107.413 18.1453 104.561 18.1453H96.5699V13.7711H95.4583V12.3576H96.5699V5.43354H104.561C107.413 5.43354 109.735 7.67636 109.735 10.4291V13.1497Z" fill="white"/>
<path d="M93.166 1.94556H90.8811V5.56477H94.6959V1.94556H93.166Z" fill="white"/>
<path d="M135.054 9.46657V6.71379C135.054 4.05013 132.896 1.89148 130.229 1.89148H116.151C115.515 1.89148 114.998 2.40886 114.998 3.04507V15.4375H115.017V21.6387H118.706V15.4375H124.117L130.252 21.6387L136.129 21.6709L129.769 15.3682C132.737 15.0216 135.054 12.5238 135.054 9.46409V9.46657ZM118.726 11.7119V5.61961H130.229C130.834 5.61961 131.326 6.10977 131.326 6.71379V9.46657C131.326 10.7043 130.321 11.7119 129.081 11.7119H118.726Z" fill="white"/>
<path d="M160 1.953L154.561 1.97528L154.433 2.12134L148.303 8.8597L142.043 1.97528L136.626 1.97281L145.595 11.8378L136.653 21.673H142.067L142.231 21.4948L148.303 14.8158L154.504 21.6383L154.537 21.673H159.948L151.011 11.8402L160 1.953Z" fill="white"/>
</svg>
